<svg xmlns="http://www.w3.org/2000/svg" viewBox="0 0 32 32"><path fill="#fff" d="M4 4L4 12L6 12L6 14.875L7.5625 13.84375L10.3125 12L14 12L14 15L21.5625 15L22.59375 16.03125C20.585938 16.238281 19 17.9375 19 20C19 21.113281 19.476563 22.117188 20.21875 22.84375C18.886719 23.746094 18 25.285156 18 27L20 27C20 25.34375 21.34375 24 23 24C24.65625 24 26 25.34375 26 27L28 27C28 25.285156 27.113281 23.746094 25.78125 22.84375C26.523438 22.117188 27 21.113281 27 20C27 19.003906 26.609375 18.109375 26 17.40625L26 15L28 15L28 6L19 6L19 4 Z M 6 6L17 6L17 10L9.6875 10L9.4375 10.15625L8 11.125L8 10L6 10 Z M 19 8L26 8L26 13L24 13L24 14.5625L22.71875 13.28125L22.40625 13L16 13L16 12L19 12 Z M 9 16C6.800781 16 5 17.800781 5 20C5 21.113281 5.476563 22.117188 6.21875 22.84375C4.886719 23.746094 4 25.285156 4 27L6 27C6 25.34375 7.34375 24 9 24C10.65625 24 12 25.34375 12 27L14 27C14 25.285156 13.113281 23.746094 11.78125 22.84375C12.523438 22.117188 13 21.113281 13 20C13 17.800781 11.199219 16 9 16 Z M 9 18C10.117188 18 11 18.882813 11 20C11 21.117188 10.117188 22 9 22C7.882813 22 7 21.117188 7 20C7 18.882813 7.882813 18 9 18 Z M 23 18C24.117188 18 25 18.882813 25 20C25 21.117188 24.117188 22 23 22C21.882813 22 21 21.117188 21 20C21 18.882813 21.882813 18 23 18Z"/></svg>