<?xml version="1.0" standalone="no"?>
<!DOCTYPE svg PUBLIC "-//W3C//DTD SVG 20010904//EN"
 "http://www.w3.org/TR/2001/REC-SVG-20010904/DTD/svg10.dtd">
<svg version="1.0" xmlns="http://www.w3.org/2000/svg"
 width="100" height="100" viewBox="0 0 450 450"
 preserveAspectRatio="xMidYMid meet">

<g transform="translate(-200,650) scale(0.19,-0.19)"
fill="#f1554c" stroke="none">
<path d="M2045 3394 c-488 -87 -876 -489 -944 -978 -21 -148 -8 -345 30 -476
20 -68 74 -200 82 -200 5 0 49 23 98 52 68 40 88 56 83 68 -48 104 -84 260
-84 362 l0 57 83 49 c45 27 155 90 243 141 l162 93 81 -47 80 -46 3 -150 3
-149 108 62 107 62 0 151 0 150 -82 46 -81 47 81 47 82 48 0 313 0 314 -27 -1
c-16 0 -64 -7 -108 -15z m-93 -486 c-23 -23 -577 -336 -580 -328 -7 19 68 159
126 236 98 132 225 233 378 299 l79 35 3 -117 c1 -64 -1 -120 -6 -125z"/>
<path d="M2322 3099 l3 -314 434 -250 433 -250 -5 -103 c-3 -57 -9 -108 -14
-113 -5 -5 -176 87 -418 227 -226 130 -416 239 -422 241 -10 4 -13 -24 -13
-119 l0 -124 480 -277 c264 -152 483 -277 488 -277 21 0 86 198 107 325 58
351 -50 711 -295 977 -62 68 -195 175 -270 217 l-40 22 0 -128 0 -128 66 -54
c37 -30 95 -91 130 -135 61 -77 153 -241 141 -252 -3 -3 -136 70 -296 162
l-291 168 0 232 0 231 -57 11 c-32 6 -82 14 -111 18 l-52 7 2 -314z"/>
<path d="M1768 1892 c-263 -153 -478 -281 -478 -286 0 -17 79 -114 151 -185
444 -437 1167 -438 1615 -3 69 67 154 171 154 188 0 5 -41 33 -92 62 -87 50
-92 51 -104 33 -86 -122 -216 -230 -366 -301 -139 -67 -219 -83 -398 -83 -182
0 -260 16 -405 87 -89 43 -215 128 -215 145 0 5 187 116 415 247 228 132 415
242 415 245 0 5 -209 131 -213 128 -1 0 -217 -125 -479 -277z"/>
</g>
</svg>
