<svg xmlns="http://www.w3.org/2000/svg" viewBox="0 0 26 26"><path fill="#fff" d="M25.324219 10.136719C25.210938 9.777344 24.894531 9.511719 24.519531 9.457031L17.179688 8.390625L13.894531 1.738281C13.558594 1.058594 12.441406 1.058594 12.101563 1.738281L8.820313 8.390625L1.480469 9.457031C1.105469 9.511719 0.789063 9.773438 0.671875 10.136719C0.554688 10.5 0.652344 10.898438 0.925781 11.160156L6.238281 16.339844L4.984375 23.648438C4.921875 24.023438 5.074219 24.40625 5.382813 24.628906C5.691406 24.851563 6.097656 24.882813 6.433594 24.703125L13 21.253906L19.5625 24.703125C19.710938 24.78125 19.871094 24.816406 20.03125 24.816406C20.238281 24.816406 20.441406 24.753906 20.617188 24.628906C20.925781 24.402344 21.078125 24.023438 21.015625 23.648438L19.761719 16.339844L25.074219 11.160156C25.347656 10.894531 25.441406 10.5 25.324219 10.136719Z"/></svg>